:SAMPLES-PER-SECOND 30
:FULLY-SPECIFIED
:DEGREES
1884
root  19.374 37.6129 12.7256 146.923 78.9133 152.337
RightUpLeg  -2.55558 -5.94292 -14.6122
RightLeg  64.6609 2.97099 6.20645
RightFoot  2.74768 -1.38716 11.3911
RightToes  7.56698e-010 0 -3.6325e-017
Spine  13.6611 -0.877504 0.548239
Spine1  6.68758 0.431616 -9.27237
HEad  -8.46819 4.50092 -6.45587
LeftShoulder1  0.578658 1.77498 -27.3108
LeftArm  -8.77603 19.3691 -41.3317
LeftForeArm  28.846 -3.64204 -5.7893
LeftHand  -0.387855 10.6642 -6.9135
RightShoulder  75.5403 -82.1343 -93.4358
RightArm  131.658 6.84483 121.83
RightForeArm  -52.7327 32.9615 9.42956
RightHand  -0.461101 5.02964 -5.44382
LeftUpLeg  -12.7274 10.2441 -12.3757
LeftLeg  27.7606 8.54946 5.22451
LeftFoot  -10.7096 0.0111959 9.49337
LeftToes  -2.88401e-009 5.30678e-011 -1.08654e-010
1885
root  20.4268 37.8618 12.4964 151.233 78.7297 156.641
RightUpLeg  -7.76302 -3.97265 -12.937
RightLeg  66.1486 3.01041 6.81624
RightFoot  0.874174 -1.34388 12.5371
RightToes  7.56698e-010 0 -3.6325e-017
Spine  13.5426 -1.11774 -0.382212
Spine1  6.85189 -0.409298 -7.66876
HEad  -8.95785 5.13622 -6.18194
LeftShoulder1  0.552553 1.84848 -27.2235
LeftArm  -8.1427 17.7328 -42.6748
LeftForeArm  28.5341 -4.56012 -6.35292
LeftHand  -0.336799 10.4185 -6.18598
RightShoulder  76.6093 -82.0849 -94.5839
RightArm  134.551 6.72477 121.587
RightForeArm  -59.2055 33.6319 9.72698
RightHand  -0.493222 6.00291 -5.33924
LeftUpLeg  -10.0819 9.65777 -11.4308
LeftLeg  26.3393 8.61302 4.92989
LeftFoot  -11.91 0.114888 8.56391
LeftToes  -2.88401e-009 5.30678e-011 -1.08654e-010
1886
root  21.5331 38.1447 12.2541 155.545 78.4007 161.173
RightUpLeg  -12.085 -1.87315 -11.1475
RightLeg  64.5659 2.79862 5.84909
RightFoot  0.0171199 -1.10493 11.0989
RightToes  7.56698e-010 0 -3.6325e-017
Spine  13.8091 -1.3347 -1.60342
Spine1  6.26666 -1.34787 -5.17097
HEad  -9.25153 6.41298 -4.90849
LeftShoulder1  0.539828 1.88598 -27.2141
LeftArm  -7.61577 16.5098 -43.9726
LeftForeArm  27.4573 -6.7899 -6.88625
LeftHand  -0.307863 10.9577 -4.93014
RightShoulder  77.8966 -82.1877 -95.7908
RightArm  137.192 6.96421 121.216
RightForeArm  -65.2478 34.0174 9.89784
RightHand  -0.584022 6.86231 -5.87303
LeftUpLeg  -6.75408 8.44921 -10.3261
LeftLeg  24.2118 9.21846 4.39792
LeftFoot  -12.6848 0.169415 7.92804
LeftToes  -2.88401e-009 5.30678e-011 -1.08654e-010
1887
root  22.6285 38.3549 11.9892 159.38 78.0483 165.233
RightUpLeg  -15.5991 0.0868619 -9.80003
RightLeg  60.2947 2.66193 4.57024
RightFoot  -1.8535 -0.928576 10.984
RightToes  7.56698e-010 0 -3.6325e-017
Spine  13.8639 -1.6587 -2.69805
Spine1  5.94139 -2.26147 -2.90103
HEad  -9.16396 6.17454 -4.41386
LeftShoulder1  0.490114 2.0445 -27.429
LeftArm  -5.89876 14.814 -44.6716
LeftForeArm  26.0535 -9.54679 -7.32947
LeftHand  -0.247269 10.5036 -4.09395
RightShoulder  75.9895 -82.6104 -93.3889
RightArm  138.989 7.61704 120.89
RightForeArm  -68.9817 34.0285 9.91839
RightHand  -0.602671 7.56519 -5.74383
LeftUpLeg  -3.48604 7.11541 -9.25954
LeftLeg  22.1202 10.1037 3.7147
LeftFoot  -13.5664 0.225045 7.3626
LeftToes  -2.88401e-009 5.30678e-011 -1.08654e-010
1888
root  23.7209 38.4879 11.7041 162.617 77.5991 168.782
RightUpLeg  -18.0551 1.71628 -8.70527
RightLeg  53.5673 2.50978 3.29292
RightFoot  -3.00714 -0.724583 9.64841
RightToes  7.56698e-010 0 -3.6325e-017
Spine  14.1615 -2.00356 -3.71255
Spine1  5.46044 -3.12395 -0.610934
HEad  -9.13298 6.18328 -3.76291
LeftShoulder1  0.477618 2.08504 -27.5126
LeftArm  -1.87305 12.7827 -45.0894
LeftForeArm  22.7862 -12.7128 -7.36613
LeftHand  -0.189224 9.87332 -3.36855
RightShoulder  72.0068 -82.9442 -88.9338
RightArm  139.054 8.26019 120.596
RightForeArm  -68.8853 33.62 9.79665
RightHand  -0.52745 7.27109 -5.17765
LeftUpLeg  -0.263482 6.34587 -8.40523
LeftLeg  20.1966 10.3075 3.13034
LeftFoot  -14.5525 0.286553 7.08653
LeftToes  -2.88401e-009 5.30678e-011 -1.08654e-010
